<?xml version="1.0" encoding="UTF-8"?>
<svg id="_圖層_1" data-name="圖層_1" xmlns="http://www.w3.org/2000/svg" version="1.1" viewBox="0 0 64 64">
  <!-- Generator: Adobe Illustrator 30.6.0, SVG Export Plug-In . SVG Version: 2.1.4 Build 109)  -->
  <defs>
    <style>
      .st0 {
        fill: #1a1a1a;
      }

      .st1 {
        fill: #d0db6b;
      }

      .st1, .st2 {
        stroke: #1a1a1a;
        stroke-miterlimit: 10;
        stroke-width: 2px;
      }

      .st2 {
        fill: #fff;
      }
    </style>
  </defs>
  <rect class="st2" x="11.59" y="14.99" width="40.82" height="6.8" rx="2.83" ry="2.83"/>
  <path class="st1" d="M22.36,8.19h19.28c3.13,0,5.67,2.54,5.67,5.67v1.13h-30.61v-1.13c0-3.13,2.54-5.67,5.67-5.67Z"/>
  <path class="st1" d="M40.99,55.81h-18.29c-1.74,0-3.2-1.31-3.38-3.04l-3.28-30.97h31.62l-3.28,30.97c-.18,1.73-1.64,3.04-3.38,3.04Z"/>
  <g>
    <path class="st0" d="M31.84,30.46c-4.05,0-5.54,3.3-5.54,3.3,3.18.74,4.36,2.12,5.54,3.71,1.18-1.6,2.36-2.98,5.54-3.71,0,0-1.48-3.3-5.54-3.3Z"/>
    <path class="st0" d="M25.7,34.92c-4.05,0-5.54,3.3-5.54,3.3,3.18.74,4.36,2.12,5.54,3.71,1.18-1.6,2.36-2.98,5.54-3.71,0,0-1.48-3.3-5.54-3.3Z"/>
    <path class="st0" d="M37.99,34.92c-4.05,0-5.54,3.3-5.54,3.3,3.18.74,4.36,2.12,5.54,3.71,1.18-1.6,2.36-2.98,5.54-3.71,0,0-1.48-3.3-5.54-3.3Z"/>
  </g>
</svg>