<?xml version="1.0" encoding="UTF-8"?>
<svg id="_圖層_1" data-name="圖層_1" xmlns="http://www.w3.org/2000/svg" version="1.1" viewBox="0 0 64 64">
  <!-- Generator: Adobe Illustrator 30.6.0, SVG Export Plug-In . SVG Version: 2.1.4 Build 109)  -->
  <defs>
    <style>
      .st0 {
        fill: #7f5517;
      }

      .st0, .st1, .st2 {
        stroke-linecap: round;
        stroke-linejoin: round;
      }

      .st0, .st1, .st2, .st3 {
        stroke: #1a1a1a;
        stroke-width: 2px;
      }

      .st1 {
        fill: #d9bb8c;
      }

      .st2 {
        fill: none;
      }

      .st3 {
        fill: #d0db6b;
        stroke-miterlimit: 10;
      }
    </style>
  </defs>
  <path class="st0" d="M31.96,39.91l-10.84,2.73-4.48,1.13-.55,2.48c-.39,1.74.71,3.47,2.45,3.85l5.68,1.26c.05-.22.11-.44.18-.65s.16-.43.26-.64c.52-1.04,1.32-1.84,2.26-2.37.63-.35,1.32-.58,2.03-.67.36-.05.72-.06,1.08-.03.73.05,1.46.24,2.15.59.88.44,1.59,1.08,2.1,1.84.69,1.01,1.03,2.22.96,3.45-.02.31-.06.62-.12.92l12.63,2.81c1.74.39,3.47-.71,3.85-2.45l.44-1.97c-.67.37-1.41.63-2.23.7-3.08.29-5.82-1.98-6.1-5.07-.29-3.08,1.98-5.82,5.07-6.1,2.06-.19,3.94.77,5.07,2.34l.44-1.99c.39-1.74-.71-3.47-2.45-3.85l-7.08-1.57c-.09.03-.17.07-.26.1l-12.55,3.16Z"/>
  <path class="st1" d="M34.29,49.43c-.26-.38-.56-.73-.91-1.04-.35-.31-.75-.58-1.19-.8-.35-.17-.7-.31-1.06-.41-.36-.1-.72-.16-1.09-.18-.36-.02-.73-.01-1.08.03-.71.09-1.41.32-2.03.67-.94.53-1.74,1.33-2.26,2.37-.11.21-.19.42-.26.64-.07.22-.13.43-.18.65l10.92,2.43c.07-.31.11-.61.12-.92.06-1.23-.28-2.44-.96-3.45Z"/>
  <path class="st1" d="M48.79,41.72c-3.08.29-5.35,3.02-5.07,6.1.29,3.08,3.02,5.35,6.1,5.07.81-.08,1.56-.33,2.23-.7l1.81-8.13c-1.12-1.57-3.01-2.53-5.07-2.34Z"/>
  <path class="st3" d="M21.13,31.76c.71-.56,1.29-1.27,1.66-2.1h23.26l.8,3.16c.41,1.64-.51,3.28-2.08,3.82l-28.14,7.13-1.16.29c-1.73.44-3.48-.61-3.92-2.34l-3.03-12c-.44-1.73.61-3.48,2.34-3.92l1.58-.4c-.23.61-.37,1.26-.37,1.95,0,3.1,2.51,5.61,5.61,5.61.69,0,1.34-.14,1.95-.37"/>
  <path class="st2" d="M19.17,23.71v-9.65c0-1.78,1.45-3.23,3.23-3.23h26.65c-.07.35-.11.71-.11,1.08,0,3.1,2.51,5.61,5.61,5.61.35,0,.69-.04,1.03-.1v9.02c0,1.78-1.45,3.23-3.23,3.23h-29.56"/>
  <path class="st1" d="M52.35,10.83h-3.3c-.07.35-.11.71-.11,1.08,0,3.1,2.51,5.61,5.61,5.61.35,0,.69-.04,1.03-.1v-3.36c0-1.78-1.45-3.23-3.23-3.23Z"/>
  <path class="st1" d="M40.64,14.64c-2.91,0-5.27,2.22-5.55,5.06-.02.18-.06.36-.06.55,0,3.1,2.51,5.61,5.61,5.61,1.58,0,3-.66,4.02-1.7.98-1.01,1.59-2.38,1.59-3.91,0-3.1-2.51-5.61-5.61-5.61Z"/>
  <path class="st1" d="M19.64,32.6l1.49-.84-1.49.84c-.61.23-1.26.37-1.95.37-3.1,0-5.61-2.51-5.61-5.61,0-.69.14-1.34.37-1.95l6.73-1.7v2.72c0,1.78,1.45,3.23,3.23,3.23h.39c-.38.83-.95,1.54-1.66,2.1"/>
</svg>