<?xml version="1.0" encoding="UTF-8"?>
<svg id="_圖層_1" data-name="圖層_1" xmlns="http://www.w3.org/2000/svg" version="1.1" viewBox="0 0 64 64">
  <!-- Generator: Adobe Illustrator 30.6.0, SVG Export Plug-In . SVG Version: 2.1.4 Build 109)  -->
  <defs>
    <style>
      .st0 {
        fill: #d0db6b;
        stroke-linejoin: round;
      }

      .st0, .st1 {
        stroke: #1a1a1a;
        stroke-linecap: round;
        stroke-width: 2px;
      }

      .st1 {
        fill: none;
        stroke-miterlimit: 10;
      }
    </style>
  </defs>
  <path class="st0" d="M9.95,23.83s-.41-2.66-1.51-3.9-.51-1.8.6-1.8,12.39-1.18,16.23,5.9-1.92,11-4.42,11.19-7.16.23-9.35-5.56c0,0-1.21-2.9-1.55-5.83Z"/>
  <path class="st1" d="M22.34,31.97s3.01,3.83,3.6,6.38"/>
  <path class="st0" d="M41.25,42.26c-2.36.35-4.8-.22-6.83-1.48-1.42-.88-2.97-2.26-3.94-4.39-2.65-5.84.5-12.43,5.39-15.96,5.6-4.03,13.67-4.66,20.28-3.61-1.78-.28-3.36,11.04-3.61,12.36-1.11,5.81-4.91,12.12-11.29,13.07Z"/>
  <path class="st1" d="M46.48,23.01s-10.38,4.89-16.99,24.61"/>
  <path class="st1" d="M38.37,30.39s1.15-3.86,1.15-6.38"/>
  <path class="st1" d="M35.89,33.9s4.68-2.85,9.73-1.56"/>
</svg>