<?xml version="1.0" encoding="UTF-8"?>
<svg id="_圖層_1" data-name="圖層_1" xmlns="http://www.w3.org/2000/svg" version="1.1" viewBox="0 0 64 64">
  <!-- Generator: Adobe Illustrator 30.6.0, SVG Export Plug-In . SVG Version: 2.1.4 Build 109)  -->
  <defs>
    <style>
      .st0 {
        fill: #1a1a1a;
      }

      .st1 {
        fill: #d0db6b;
      }

      .st1, .st2, .st3 {
        stroke: #1a1a1a;
        stroke-miterlimit: 10;
        stroke-width: 2px;
      }

      .st2 {
        fill: #fff;
      }

      .st3 {
        fill: none;
        stroke-linecap: round;
      }
    </style>
  </defs>
  <g>
    <path class="st2" d="M46.25,32.09v1.78c0,2.94-.76,5.7-2.08,8.1.64.28,1.34.45,2.08.45,2.85,0,5.17-2.31,5.17-5.17s-2.31-5.17-5.17-5.17Z"/>
    <path class="st1" d="M46.25,32.09v-1.99c0-1.21-.98-2.19-2.19-2.19H14.77c-1.21,0-2.19.98-2.19,2.19v3.29c0,9.06,6.96,16.86,16.02,17.29,6.7.32,12.58-3.29,15.56-8.71,0,0,2.4-5.02,2.08-9.89Z"/>
  </g>
  <g>
    <path class="st0" d="M29.94,32.61c-3.47,0-4.74,2.82-4.74,2.82,2.72.63,3.73,1.81,4.74,3.18,1.01-1.36,2.02-2.55,4.74-3.18,0,0-1.27-2.82-4.74-2.82Z"/>
    <path class="st0" d="M24.68,36.42c-3.47,0-4.74,2.82-4.74,2.82,2.72.63,3.73,1.81,4.74,3.18,1.01-1.36,2.02-2.55,4.74-3.18,0,0-1.27-2.82-4.74-2.82Z"/>
    <path class="st0" d="M35.2,36.42c-3.47,0-4.74,2.82-4.74,2.82,2.72.63,3.73,1.81,4.74,3.18,1.01-1.36,2.02-2.55,4.74-3.18,0,0-1.27-2.82-4.74-2.82Z"/>
  </g>
  <path class="st3" d="M25.2,13.3s-3.46,3.11-1.05,5.52.1,4.58.1,4.58"/>
  <path class="st3" d="M30.35,13.3s-3.46,3.11-1.05,5.52.1,4.58.1,4.58"/>
  <path class="st3" d="M35.5,13.3s-3.46,3.11-1.05,5.52.1,4.58.1,4.58"/>
</svg>